# xmcd CD database file
#
# Track frame offsets:
#	150
#	19990
#	36847
#
# Disc length: 753 seconds
#
# Revision: 1
# Processed by: cddbd v1.5.2PL0 Copyright (c) Steve Scherf et al.
# Submitted via: CDex 1.70beta2
#
DISCID=1e02ef03
DTITLE=平家みちよ - 結局 Bye Bye Bye
DYEAR=2001
DGENRE=JPop
TTITLE0=結局 Bye Bye Bye
TTITLE1=雨・雨・夜
TTITLE2=結局 Bye Bye Bye(Instrumental)
EXTD=YEAR: 2001
EXTT0=
EXTT1=
EXTT2=
PLAYORDER=
